<?xml version="1.0" encoding="UTF-8"?><svg id="Layer_1" xmlns="http://www.w3.org/2000/svg" viewBox="0 0 959.34 258.25"><path d="M0,.07H33.36V80.89L99.57,.07h36L67.79,84.11l67.78,82.93h-39.53l-46.04-60.97h-8L0,156.43V.07ZM212.39,.07l-65.39,167h31l32-94h3l32.5,94,31.82-.03L212.39,.07Zm146.61,47h31.14S390,.07,340,.07c0,0-46-4-54,47,0,0-1,46,41,48,0,0,35,1,36,25,0,0,.14,19.21-24.93,20.61v26.39s50.22,1.07,52.07-46.96c0,0,6-48.18-52.07-51.11,0,0-23.07,5.07-22.07-23.93,0,0,1-19,26-18,0,0,18-2,17,20ZM464.07,.07l-65.57,167h30.86l31.64-94h4l32.93,94h33.86L464.07,.07Z" fill="#898989"/><path d="M538,0h32l77,110.07h3.82V.07L680.71,0V167.07h-30.85l-77.86-111h-2V127.07h-32V0ZM755.5,0l-64.71,167.07h30.1l32.11-94h4l33,94h32.79L755.5,0ZM830,0h32.64V71.07h-32.64V0Zm0,107.25v59.82h32.64v-29.91h66.54v29.91h29.57V0h-30.54V108.07l-98.21-.82Z" fill="#9a7a36"/><path d="M7.67,192.62h3.68v11.32h.13c.76-.91,1.52-1.74,2.24-2.51l8.71-8.81h4.57l-10.32,9.96,11.12,13.51h-4.35l-9.39-11.53-2.71,2.58v8.95h-3.68v-23.47h0Zm46.55,11.49c0,8.08-5.96,12.36-13.23,12.36s-12.81-4.8-12.81-11.91,5.62-12.33,13.23-12.33,12.81,4.91,12.81,11.87h0Zm-22.11,.39c0,5.01,3.3,9.51,9.09,9.51s9.13-4.42,9.13-9.75c0-4.67-2.96-9.54-9.09-9.54s-9.13,4.63-9.13,9.78Zm26.89-11.59c1.78-.24,4.1-.45,7.06-.45,3.64,0,6.3,.7,7.99,1.95,1.56,1.11,2.49,2.82,2.49,4.91s-.76,3.79-2.2,5.01c-1.95,1.71-5.12,2.58-8.71,2.58-1.1,0-2.11-.04-2.96-.21v9.4h-3.68v-23.19h.01Zm3.68,11.32c.8,.17,1.82,.24,3.04,.24,4.44,0,7.15-1.78,7.15-5.01s-2.66-4.6-6.72-4.6c-1.61,0-2.83,.1-3.47,.24v9.12h0Zm33.56,.88h-11.08v8.46h12.35v2.54h-16.02v-23.47h15.39v2.54h-11.71v7.42h11.08v2.51h-.01Zm6.05-12.15c1.86-.31,4.52-.49,7.06-.49,3.93,0,6.47,.59,8.25,1.92,1.44,1.04,2.24,2.65,2.24,4.46,0,3.1-2.37,5.15-5.37,5.99v.1c2.2,.63,3.51,2.3,4.19,4.74,.93,3.27,1.61,5.54,2.2,6.44h-3.81c-.46-.66-1.1-2.68-1.9-5.61-.85-3.24-2.37-4.46-5.71-4.56h-3.47v10.17h-3.68v-23.16h0Zm3.68,10.69h3.76c3.93,0,6.43-1.78,6.43-4.46,0-3.03-2.66-4.35-6.55-4.39-1.78,0-3.04,.14-3.64,.28v8.57Zm23.88,5.08l-2.96,7.38h-3.81l9.68-23.47h4.44l9.73,23.47h-3.93l-3.04-7.38h-10.11Zm9.34-2.37l-2.79-6.75c-.63-1.53-1.06-2.92-1.48-4.28h-.08c-.42,1.39-.89,2.82-1.44,4.25l-2.79,6.79h8.58Zm11.42,6.05c1.65,.84,4.06,1.53,6.6,1.53,3.76,0,5.96-1.64,5.96-4,0-2.19-1.52-3.45-5.37-4.67-4.65-1.36-7.53-3.34-7.53-6.65,0-3.66,3.68-6.37,9.22-6.37,2.92,0,5.03,.56,6.3,1.15l-1.01,2.47c-.93-.42-2.83-1.11-5.41-1.11-3.89,0-5.37,1.92-5.37,3.52,0,2.19,1.73,3.27,5.67,4.53,4.82,1.53,7.27,3.45,7.27,6.89,0,3.62-3.26,6.76-9.98,6.76-2.75,0-5.75-.66-7.27-1.5l.93-2.54h-.01Zm25.02-19.79v23.47h-3.68v-23.47h3.68Zm14.88,19.78c1.65,.84,4.06,1.53,6.6,1.53,3.76,0,5.96-1.64,5.96-4,0-2.19-1.52-3.45-5.37-4.67-4.65-1.36-7.53-3.34-7.53-6.65,0-3.66,3.68-6.37,9.22-6.37,2.92,0,5.03,.56,6.3,1.15l-1.01,2.47c-.93-.42-2.83-1.11-5.41-1.11-3.89,0-5.37,1.92-5.37,3.52,0,2.19,1.73,3.27,5.67,4.53,4.82,1.53,7.27,3.45,7.27,6.89,0,3.62-3.26,6.76-9.98,6.76-2.75,0-5.75-.66-7.27-1.5l.93-2.54h-.01Zm25.03-19.79v23.47h-3.68v-23.47h3.68Zm30.44,13.16c-.21-3.27-.46-7.21-.42-10.13h-.13c-.97,2.75-2.16,5.68-3.59,8.91l-5.03,11.39h-2.79l-4.61-11.18c-1.35-3.31-2.49-6.34-3.3-9.12h-.08c-.08,2.92-.3,6.86-.55,10.38l-.76,10.06h-3.51l1.99-23.47h4.69l4.86,11.35c1.18,2.89,2.16,5.47,2.88,7.9h.13c.72-2.37,1.73-4.95,3-7.9l5.07-11.35h4.69l1.78,23.47h-3.59l-.72-10.31h-.01Zm9.98-12.88c1.78-.24,4.1-.45,7.06-.45,3.64,0,6.3,.7,7.99,1.95,1.56,1.11,2.5,2.82,2.5,4.91s-.76,3.79-2.2,5.01c-1.95,1.71-5.12,2.58-8.71,2.58-1.1,0-2.11-.04-2.96-.21v9.4h-3.68v-23.19h0Zm3.68,11.32c.8,.17,1.82,.24,3.04,.24,4.44,0,7.15-1.78,7.15-5.01s-2.66-4.6-6.72-4.6c-1.61,0-2.83,.1-3.47,.24v9.12h0Zm19.86,4.5l-2.96,7.38h-3.81l9.68-23.47h4.44l9.73,23.47h-3.93l-3.04-7.38h-10.11Zm9.34-2.37l-2.79-6.75c-.63-1.53-1.06-2.92-1.48-4.28h-.08c-.42,1.39-.89,2.82-1.44,4.25l-2.79,6.79h8.58Zm11.93,9.74v-23.47h4.02l9.13,11.87c2.11,2.75,3.76,5.22,5.12,7.63l.08-.03c-.34-3.13-.42-5.99-.42-9.65v-9.82h3.47v23.47h-3.72l-9.05-11.91c-1.99-2.61-3.89-5.29-5.33-7.83l-.13,.04c.21,2.96,.3,5.78,.3,9.68v10.03h-3.47Zm36.78-23.2c1.78-.24,4.1-.45,7.06-.45,3.64,0,6.3,.7,7.99,1.95,1.56,1.11,2.5,2.82,2.5,4.91s-.76,3.79-2.2,5.01c-1.95,1.71-5.12,2.58-8.71,2.58-1.1,0-2.11-.04-2.96-.21v9.4h-3.68v-23.19Zm3.68,11.32c.8,.17,1.82,.24,3.04,.24,4.44,0,7.15-1.78,7.15-5.01s-2.66-4.6-6.72-4.6c-1.61,0-2.83,.1-3.47,.24v9.12h0Zm22.49-11.59v23.47h-3.68v-23.47h3.68Zm6.42,23.47v-23.47h4.02l9.13,11.87c2.11,2.75,3.76,5.22,5.12,7.63l.08-.03c-.34-3.13-.42-5.99-.42-9.65v-9.82h3.47v23.47h-3.72l-9.05-11.91c-1.99-2.61-3.89-5.29-5.33-7.83l-.13,.04c.21,2.96,.3,5.78,.3,9.68v10.03h-3.47Zm33.65-23.48h3.68v15.7c0,6.23-3.72,8.15-8.63,8.15-1.35,0-3-.24-3.93-.56l.55-2.47c.76,.24,1.86,.45,3.09,.45,3.3,0,5.24-1.22,5.24-5.82v-15.46h0Zm14.42,16.1l-2.96,7.38h-3.81l9.68-23.47h4.44l9.73,23.47h-3.93l-3.04-7.38h-10.11Zm9.34-2.37l-2.79-6.75c-.63-1.53-1.06-2.92-1.48-4.28h-.08c-.42,1.39-.89,2.82-1.44,4.25l-2.79,6.79h8.58Zm35.77-.57c-.21-3.27-.46-7.21-.42-10.13h-.13c-.97,2.75-2.16,5.68-3.59,8.91l-5.03,11.39h-2.79l-4.61-11.18c-1.35-3.31-2.49-6.34-3.3-9.12h-.08c-.08,2.92-.3,6.86-.55,10.38l-.76,10.06h-3.51l1.99-23.47h4.69l4.86,11.35c1.18,2.89,2.16,5.47,2.88,7.9h.13c.72-2.37,1.73-4.95,3-7.9l5.07-11.35h4.69l1.78,23.47h-3.59l-.72-10.31h-.01Zm18.93-12.84c2.24-.28,4.9-.49,7.82-.49,5.29,0,9.05,1.01,11.54,2.93,2.54,1.92,4.02,4.63,4.02,8.43s-1.44,6.96-4.1,9.12c-2.66,2.19-7.06,3.38-12.6,3.38-2.62,0-4.82-.1-6.68-.28v-23.09Zm3.68,20.75c.93,.14,2.28,.17,3.72,.17,7.86,0,12.13-3.62,12.13-9.96,.04-5.54-3.76-9.05-11.54-9.05-1.9,0-3.34,.14-4.31,.31v18.52h0Zm28.5-4.97l-2.96,7.38h-3.81l9.68-23.47h4.44l9.72,23.47h-3.93l-3.04-7.38h-10.1Zm9.34-2.37l-2.79-6.75c-.63-1.53-1.06-2.92-1.48-4.28h-.08c-.42,1.39-.89,2.82-1.44,4.25l-2.79,6.79h8.58Zm11.92,9.74v-23.47h4.02l9.13,11.87c2.11,2.75,3.76,5.22,5.12,7.63l.08-.03c-.34-3.13-.42-5.99-.42-9.65v-9.82h3.47v23.47h-3.72l-9.05-11.91c-1.99-2.61-3.89-5.29-5.33-7.83l-.13,.04c.21,2.96,.3,5.78,.3,9.68v10.03h-3.47Zm36.78-23.2c1.78-.24,4.1-.45,7.06-.45,3.64,0,6.3,.7,7.99,1.95,1.56,1.11,2.5,2.82,2.5,4.91s-.76,3.79-2.2,5.01c-1.95,1.71-5.12,2.58-8.71,2.58-1.1,0-2.11-.04-2.96-.21v9.4h-3.68v-23.19h0Zm3.68,11.32c.8,.17,1.82,.24,3.04,.24,4.44,0,7.15-1.78,7.15-5.01s-2.66-4.6-6.72-4.6c-1.61,0-2.83,.1-3.47,.24v9.12h0Zm33.57,.88h-11.08v8.46h12.35v2.54h-16.03v-23.47h15.39v2.54h-11.71v7.42h11.08v2.51h0Zm30.06,.69c-.21-3.27-.46-7.21-.42-10.13h-.13c-.97,2.75-2.16,5.68-3.59,8.91l-5.03,11.39h-2.79l-4.61-11.18c-1.35-3.31-2.5-6.34-3.3-9.12h-.08c-.08,2.92-.3,6.86-.55,10.38l-.76,10.06h-3.51l1.99-23.47h4.69l4.86,11.35c1.18,2.89,2.16,5.47,2.88,7.9h.13c.72-2.37,1.73-4.95,3-7.9l5.07-11.35h4.69l1.78,23.47h-3.59l-.72-10.31h-.01Zm9.97-12.84c1.61-.28,4.14-.49,6.72-.49,3.68,0,6.05,.52,7.82,1.71,1.48,.91,2.37,2.3,2.37,4.14,0,2.26-1.82,4.25-4.82,5.15v.07c2.71,.56,5.88,2.4,5.88,5.88,0,2.02-.97,3.55-2.41,4.7-1.99,1.5-5.2,2.19-9.85,2.19-2.54,0-4.48-.14-5.71-.28v-23.07Zm3.68,9.61h3.34c3.89,0,6.17-1.67,6.17-3.93,0-2.75-2.54-3.83-6.26-3.83-1.69,0-2.66,.1-3.26,.21v7.56h.01Zm0,11.24c.72,.1,1.78,.14,3.09,.14,3.8,0,7.31-1.15,7.31-4.56,0-3.2-3.34-4.53-7.36-4.53h-3.04v8.95h0Zm22.91-21.18v23.47h-3.68v-23.47h3.68Zm11.03,16.09l-2.96,7.38h-3.81l9.68-23.47h4.44l9.72,23.47h-3.93l-3.04-7.38h-10.1Zm9.35-2.37l-2.79-6.75c-.63-1.53-1.06-2.92-1.48-4.28h-.08c-.42,1.39-.89,2.82-1.44,4.25l-2.79,6.79h8.58Zm14.92,9.74v-9.96l-9.01-13.51h4.19l4.02,6.48c1.1,1.78,1.95,3.2,2.83,4.84h.08c.8-1.53,1.78-3.06,2.88-4.84l4.1-6.48h4.19l-9.55,13.48v9.99h-3.73Zm17.71-7.38l-2.96,7.38h-3.8l9.68-23.47h4.44l9.72,23.47h-3.93l-3.04-7.38h-10.11Zm9.34-2.37l-2.79-6.75c-.63-1.53-1.06-2.92-1.48-4.28h-.09c-.42,1.39-.89,2.82-1.44,4.25l-2.79,6.79h8.59Zm16.54,2.36l-2.96,7.38h-3.8l9.68-23.47h4.44l9.72,23.47h-3.93l-3.04-7.38h-10.11Zm9.34-2.37l-2.79-6.75c-.63-1.53-1.06-2.92-1.48-4.28h-.09c-.42,1.39-.89,2.82-1.44,4.25l-2.79,6.79h8.59Zm11.92,9.74v-23.47h4.02l9.13,11.87c2.12,2.75,3.76,5.22,5.12,7.63l.08-.03c-.34-3.13-.42-5.99-.42-9.65v-9.82h3.47v23.47h-3.72l-9.05-11.91c-1.99-2.61-3.89-5.29-5.33-7.83l-.13,.04c.21,2.96,.3,5.78,.3,9.68v10.03h-3.47Zm36.27-3.7c1.65,.84,4.06,1.53,6.6,1.53,3.76,0,5.96-1.64,5.96-4,0-2.19-1.52-3.45-5.37-4.67-4.65-1.36-7.53-3.34-7.53-6.65,0-3.66,3.68-6.37,9.22-6.37,2.92,0,5.03,.56,6.3,1.15l-1.02,2.47c-.93-.42-2.83-1.11-5.41-1.11-3.89,0-5.37,1.92-5.37,3.52,0,2.19,1.73,3.27,5.67,4.53,4.82,1.53,7.27,3.45,7.27,6.89,0,3.62-3.26,6.76-9.98,6.76-2.75,0-5.75-.66-7.27-1.5l.93-2.54h0Zm27.69,3.68v-9.96l-9.01-13.51h4.19l4.02,6.48c1.1,1.78,1.95,3.2,2.83,4.84h.08c.8-1.53,1.78-3.06,2.88-4.84l4.1-6.48h4.19l-9.55,13.48v9.99h-3.73Zm17.72-7.38l-2.96,7.38h-3.8l9.68-23.47h4.44l9.72,23.47h-3.93l-3.04-7.38h-10.11Zm9.34-2.37l-2.79-6.75c-.63-1.53-1.06-2.92-1.48-4.28h-.09c-.42,1.39-.89,2.82-1.44,4.25l-2.79,6.79h8.59Zm11.92-13.41c1.86-.31,4.52-.49,7.06-.49,3.93,0,6.47,.59,8.25,1.92,1.44,1.04,2.24,2.65,2.24,4.46,0,3.1-2.37,5.15-5.37,5.99v.1c2.2,.63,3.51,2.3,4.19,4.74,.93,3.27,1.61,5.54,2.2,6.44h-3.81c-.46-.66-1.1-2.68-1.9-5.61-.85-3.24-2.37-4.46-5.71-4.56h-3.47v10.17h-3.68v-23.16h0Zm3.68,10.69h3.76c3.93,0,6.43-1.78,6.43-4.46,0-3.03-2.66-4.35-6.55-4.39-1.78,0-3.04,.14-3.64,.28v8.57Zm22.74-11.01v23.47h-3.68v-23.47h3.68Zm11.04,16.09l-2.96,7.38h-3.8l9.68-23.47h4.44l9.72,23.47h-3.93l-3.04-7.38h-10.11Zm9.34-2.37l-2.79-6.75c-.63-1.53-1.06-2.92-1.48-4.28h-.09c-.42,1.39-.89,2.82-1.44,4.25l-2.79,6.79h8.59Zm15.6-13.73v9.82h13.79v-9.82h3.72v23.47h-3.72v-11h-13.79v11h-3.68v-23.47h3.68ZM254.56,234.4v23.47h-3.68v-23.47h3.68Zm6.43,23.47v-23.47h4.02l9.13,11.87c2.11,2.75,3.76,5.22,5.12,7.63l.08-.03c-.34-3.13-.42-5.99-.42-9.65v-9.82h3.47v23.47h-3.72l-9.05-11.91c-1.99-2.61-3.89-5.29-5.33-7.83l-.13,.04c.21,2.96,.3,5.78,.3,9.68v10.03h-3.47Zm27.31-3.7c1.65,.84,4.06,1.53,6.6,1.53,3.76,0,5.96-1.64,5.96-4,0-2.19-1.52-3.45-5.37-4.67-4.65-1.36-7.53-3.34-7.53-6.65,0-3.66,3.68-6.37,9.22-6.37,2.92,0,5.03,.56,6.3,1.15l-1.01,2.47c-.93-.42-2.83-1.11-5.41-1.11-3.89,0-5.37,1.92-5.37,3.52,0,2.19,1.73,3.27,5.67,4.53,4.82,1.53,7.27,3.45,7.27,6.89,0,3.62-3.26,6.76-9.98,6.76-2.75,0-5.75-.66-7.27-1.5l.93-2.54h0Zm25.95-3.7l-2.96,7.38h-3.81l9.68-23.47h4.44l9.73,23.47h-3.93l-3.04-7.38h-10.11Zm9.34-2.37l-2.79-6.75c-.63-1.53-1.06-2.92-1.48-4.28h-.08c-.42,1.39-.89,2.82-1.44,4.25l-2.79,6.79h8.58Zm11.93,9.74v-23.47h4.02l9.13,11.87c2.11,2.75,3.76,5.22,5.12,7.63l.08-.03c-.34-3.13-.42-5.99-.42-9.65v-9.82h3.47v23.47h-3.72l-9.05-11.91c-1.99-2.61-3.89-5.29-5.33-7.83l-.13,.04c.21,2.96,.3,5.78,.3,9.68v10.03h-3.47Zm41.39-7.39l-2.96,7.38h-3.81l9.68-23.47h4.44l9.73,23.47h-3.93l-3.04-7.38h-10.11Zm9.34-2.37l-2.79-6.75c-.63-1.53-1.06-2.92-1.48-4.28h-.08c-.42,1.39-.89,2.82-1.44,4.25l-2.79,6.79h8.58Zm11.92-13.41c2.24-.28,4.9-.49,7.82-.49,5.29,0,9.05,1.01,11.54,2.93,2.54,1.92,4.02,4.63,4.02,8.43s-1.44,6.96-4.1,9.12c-2.66,2.19-7.06,3.38-12.6,3.38-2.62,0-4.82-.1-6.68-.28v-23.09Zm3.68,20.75c.93,.14,2.28,.17,3.72,.17,7.86,0,12.13-3.62,12.13-9.96,.04-5.54-3.76-9.05-11.54-9.05-1.9,0-3.34,.14-4.31,.31v18.52h0Zm28.15-21.06v9.82h13.78v-9.82h3.72v23.47h-3.72v-11h-13.78v11h-3.68v-23.47h3.68Zm27.57,0v23.47h-3.68v-23.47h3.68Zm30.44,13.16c-.21-3.27-.46-7.21-.42-10.13h-.13c-.97,2.75-2.16,5.68-3.59,8.91l-5.03,11.39h-2.79l-4.61-11.18c-1.35-3.31-2.49-6.34-3.3-9.12h-.08c-.08,2.92-.3,6.86-.55,10.38l-.76,10.06h-3.51l1.99-23.47h4.69l4.86,11.35c1.18,2.89,2.16,5.47,2.88,7.9h.13c.72-2.37,1.73-4.95,3-7.9l5.07-11.35h4.69l1.78,23.47h-3.59l-.72-10.31h-.01Zm13.65-13.16v23.47h-3.68v-23.47h3.68Zm22.03,23.47l-3.64-5.19c-1.48-1.98-2.41-3.27-3.3-4.63h-.08c-.8,1.36-1.61,2.61-3.09,4.67l-3.42,5.15h-4.23l8.71-11.87-8.37-11.59h4.27l3.76,5.5c1.06,1.53,1.86,2.72,2.62,3.97h.13c.8-1.39,1.52-2.47,2.58-3.97l3.89-5.5h4.23l-8.67,11.42,8.88,12.05h-4.27Zm16.99-3.7c1.65,.84,4.06,1.53,6.6,1.53,3.76,0,5.96-1.64,5.96-4,0-2.19-1.52-3.45-5.37-4.67-4.65-1.36-7.53-3.34-7.53-6.65,0-3.66,3.68-6.37,9.22-6.37,2.92,0,5.03,.56,6.3,1.15l-1.01,2.47c-.93-.42-2.83-1.11-5.41-1.11-3.89,0-5.37,1.92-5.37,3.52,0,2.19,1.73,3.27,5.67,4.53,4.82,1.53,7.27,3.45,7.27,6.89,0,3.62-3.26,6.76-9.98,6.76-2.75,0-5.75-.66-7.27-1.5l.93-2.54h0Zm36.1-7.32h-11.08v8.46h12.35v2.54h-16.03v-23.47h15.39v2.54h-11.71v7.42h11.08v2.51h0Zm12.64-12.47h3.68v15.7c0,6.23-3.72,8.15-8.63,8.15-1.35,0-3-.24-3.93-.56l.55-2.47c.76,.24,1.86,.45,3.09,.45,3.3,0,5.24-1.22,5.24-5.82v-15.46h0Zm14.42,16.1l-2.96,7.38h-3.81l9.68-23.47h4.44l9.72,23.47h-3.93l-3.04-7.38h-10.1Zm9.34-2.37l-2.79-6.75c-.63-1.53-1.06-2.92-1.48-4.28h-.08c-.42,1.39-.89,2.82-1.44,4.25l-2.79,6.79h8.58Zm15.6-13.73v9.82h13.78v-9.82h3.72v23.47h-3.72v-11h-13.78v11h-3.68v-23.47h3.68Zm29.3,2.58h-8.67v-2.58h21.1v2.58h-8.71v20.89h-3.72v-20.89Zm15.6-2.26c1.86-.31,4.52-.49,7.06-.49,3.93,0,6.47,.59,8.25,1.92,1.44,1.04,2.24,2.65,2.24,4.46,0,3.1-2.37,5.15-5.37,5.99v.1c2.2,.63,3.51,2.3,4.19,4.74,.93,3.27,1.61,5.54,2.2,6.44h-3.81c-.46-.66-1.1-2.68-1.9-5.61-.85-3.24-2.37-4.46-5.71-4.56h-3.47v10.17h-3.68v-23.16Zm3.68,10.69h3.76c3.93,0,6.43-1.78,6.43-4.46,0-3.03-2.66-4.35-6.55-4.39-1.78,0-3.04,.14-3.64,.28v8.57Zm23.88,5.08l-2.96,7.38h-3.8l9.68-23.47h4.44l9.72,23.47h-3.93l-3.04-7.38h-10.11Zm9.34-2.37l-2.79-6.75c-.63-1.53-1.06-2.92-1.48-4.28h-.09c-.42,1.39-.89,2.82-1.44,4.25l-2.79,6.79h8.59Z" fill="#080808"/></svg>