<?xml version="1.0" encoding="UTF-8"?><svg id="Layer_1" xmlns="http://www.w3.org/2000/svg" viewBox="0 0 932.57 162.52"><polygon points="0 .08 32.45 .08 32.45 78.69 96.85 .08 131.87 .08 65.94 81.81 131.87 162.48 93.42 162.48 48.63 103.18 40.85 103.18 0 152.17 0 .08" fill="#898989"/><polygon points="206.59 .08 142.99 162.52 173.14 162.52 204.27 71.08 207.18 71.08 238.8 162.52 269.75 162.48 206.59 .08" fill="#898989"/><path d="M349.2,45.79h30.29S379.35,.08,330.71,.08c0,0-44.74-3.89-52.53,45.72,0,0-.97,44.74,39.88,46.69,0,0,34.04,.97,35.02,24.32,0,0,.14,18.69-24.25,20.05v25.67s48.85,1.04,50.65-45.68c0,0,5.84-46.86-50.65-49.71,0,0-22.44,4.93-21.47-23.28,0,0,.97-18.48,25.29-17.51,0,0,17.51-1.95,16.54,19.45Z" fill="#898989"/><polygon points="451.4 .08 387.62 162.52 417.63 162.52 448.41 71.08 452.3 71.08 484.33 162.52 517.27 162.52 451.4 .08" fill="#898989"/><polygon points="523.31 0 554.43 0 629.33 107.07 633.05 107.07 633.05 .08 662.12 0 662.12 162.52 632.11 162.52 556.38 54.55 554.43 54.55 554.43 123.61 523.31 123.61 523.31 0" fill="#9a7a36"/><polygon points="734.87 0 671.92 162.52 701.2 162.52 732.44 71.08 736.33 71.08 768.43 162.52 800.32 162.52 734.87 0" fill="#9a7a36"/><rect x="807.33" width="31.75" height="69.13" fill="#9a7a36"/><polygon points="807.33 104.33 807.33 162.52 839.08 162.52 839.08 133.42 903.8 133.42 903.8 162.52 932.57 162.52 932.57 0 902.86 0 902.86 105.13 807.33 104.33" fill="#9a7a36"/></svg>