<?xml version="1.0" encoding="UTF-8"?><svg id="Layer_1" xmlns="http://www.w3.org/2000/svg" viewBox="0 0 855.4 1164.66"><path d="M351.85,917.45s-186,114-149,186c0,0,45,69,250-39,0,0,164-76,266-220,0,0-112,215.5-432.5,307.75,0,0-275.72,68.82-88.37-130.82,0,0,57.87-58.93,153.87-103.93h0Z" fill="#eb2029"/><path d="M499.74,918.45s186,114,149,186c0,0-45,69-250-39,0,0-164-76-266-220,0,0,112,215.5,432.5,307.75,0,0,275.72,68.82,88.37-130.82,0,0-57.87-58.93-153.87-103.93h0Z" fill="#898989"/><polygon points="267.74 573.45 449.74 920.45 431.74 825.45 592.74 564.45 426.74 1090.45 267.74 573.45" fill="#855435"/><path d="M554.74,427.45s-106,53-72,117c0,0,21-12,44-63,0,0,7,23-30,71,0,0,74,18,58-125Z" fill="#61b748"/><path d="M801.04,534.23s-115.46-26.72-130.05,44.27c0,0,23.83,4.14,74.06-20.5,0,0-9.26,22.18-68.37,35.59,0,0,45.55,61.03,124.36-59.36h0Z" fill="#61b748"/><path d="M401.69,431.74s-61.91,101.06,.8,137.38c0,0,11.47-21.29,4.01-76.74,0,0,18.11,15.81,12.11,76.12,0,0,72.32-23.88-16.91-136.76h0Z" fill="#61b748"/><path d="M264.72,402.94s110.13,43.76,81.72,110.43c0,0-21.95-10.16-49.21-59.02,0,0-5.01,23.51,35.95,68.18,0,0-72.19,24.25-68.45-119.6h-.01Z" fill="#61b748"/><path d="M34.85,541.25s112.76-36.47,133.35,33.02c0,0-23.39,6.15-75.54-14.11,0,0,11.12,21.31,71.16,29.63,0,0-40.18,64.7-128.97-48.53h0Z" fill="#61b748"/><path d="M134.36,702.62s52.86-106.07,116.91-72.15c0,0-11.97,21.02-62.94,44.08,0,0,23.01,6.97,70.96-30.09,0,0,18.1,73.98-124.92,58.16h0Z" fill="#61b748"/><path d="M179.88,261.56s110.74,42.2,83.27,109.26c0,0-22.09-9.85-50.04-58.31,0,0-4.68,23.58,36.91,67.67,0,0-71.84,25.27-70.14-118.62Z" fill="#61b748"/><path d="M57.88,321.56s110.74,42.2,83.27,109.26c0,0-22.09-9.85-50.04-58.31,0,0-4.68,23.58,36.91,67.67,0,0-71.84,25.27-70.14-118.62Z" fill="#61b748"/><path d="M263.88,188.56s110.74,42.2,83.27,109.26c0,0-22.09-9.85-50.04-58.31,0,0-4.68,23.58,36.91,67.67,0,0-71.84,25.27-70.14-118.62Z" fill="#61b748"/><path d="M399.69,136.74s-61.91,101.06,.8,137.38c0,0,11.47-21.29,4.01-76.74,0,0,18.11,15.81,12.11,76.12,0,0,72.32-23.88-16.91-136.76h0Z" fill="#61b748"/><path d="M498.69,235.74s-61.91,101.06,.8,137.38c0,0,11.47-21.29,4.01-76.74,0,0,18.11,15.81,12.11,76.12,0,0,72.32-23.88-16.91-136.76h-.01Z" fill="#61b748"/><path d="M666.83,266.12s-109.28,45.85-79.6,111.97c0,0,21.75-10.58,48.08-59.94,0,0,5.46,23.41-34.64,68.85,0,0,72.64,22.87,66.16-120.88h0Z" fill="#61b748"/><path d="M736.46,687.98s-72.07-94.08-128.49-48.6c0,0,15.75,18.36,70.18,31.31,0,0-21.26,11.22-75.39-16.05,0,0-3.7,76.07,133.71,33.34h-.01Z" fill="#61b748"/><path d="M785.85,329.86s-110.05,43.97-81.52,110.58c0,0,21.93-10.2,49.11-59.11,0,0,5.06,23.5-35.82,68.25,0,0,72.24,24.12,68.23-119.72h0Z" fill="#61b748"/><path d="M855.4,423.74s-92.72,5.63-87.88,62.22c0,0,18.83-2.2,51.09-31.9,0,0-2.02,18.73-43.46,41.97,0,0,47.82,35.73,80.24-72.29h.01Z" fill="#61b748"/><path d="M671.05,419.9s-87.38,31.49-66.81,84.44c0,0,17.45-7.41,40.05-44.99,0,0,3.33,18.55-29.89,52.5,0,0,55.94,20.82,56.65-91.95h0Z" fill="#61b748"/><path d="M762.89,235.4s-88.61,27.88-70.23,81.62c0,0,17.74-6.68,41.86-43.3,0,0,2.57,18.67-32.02,51.23,0,0,55.04,23.1,60.38-89.55h.01Z" fill="#61b748"/><path d="M696.29,129.97s-90.57,38.87-65.44,93.65c0,0,18.02-8.95,39.58-50.17,0,0,4.7,19.43-28.34,57.49,0,0,60.56,18.53,54.21-100.97h-.01Z" fill="#61b748"/><path d="M576.37,125.44s-76.67,61.93-37.65,107.86c0,0,14.92-13.49,24.52-59.01,0,0,9.78,17.44-11.73,63.02,0,0,63.32,1.44,24.86-111.87Z" fill="#61b748"/><path d="M552.54,0s-71.31,68.03-28.65,110.6c0,0,13.76-14.67,19.58-60.83,0,0,11.18,16.57-6.5,63.77,0,0,63.22-3.77,15.56-113.54h.01Z" fill="#61b748"/><path d="M371.19,299.94s86.53,47.18,56.38,99.37c0,0-17.1-10.59-34.71-53.66,0,0-6.5,18.91,22.83,59.89,0,0-62.03,12.77-44.51-105.6h.01Z" fill="#61b748"/><path d="M157.54,431.5s94.57,27.74,76.18,85.14c0,0-18.96-6.72-45.3-45.07,0,0-2.34,19.86,35.02,53.68,0,0-57.91,25.65-65.91-93.75h0Z" fill="#61b748"/><path d="M0,416.83s88.34,10.11,80.82,63.96c0,0-17.89-3.06-47.21-33.09,0,0,.98,18.01,39.4,42.33C73.01,490.03,25.48,521.74,0,416.84h0Z" fill="#61b748"/><path d="M78.37,227.56s93.03,24.79,76.47,81.29c0,0-18.68-6.1-45.34-42.91,0,0-1.8,19.45,35.51,51.57,0,0-55.93,26.46-66.65-89.95h.01Z" fill="#61b748"/><path d="M187.61,148.14s87.3,40.61,61.16,93.36c0,0-17.33-9.26-37.18-50.15,0,0-5.16,18.84,25.99,56.97,0,0-59.68,16.32-49.97-100.18h0Z" fill="#61b748"/><path d="M280.61,86.14s87.3,40.61,61.16,93.36c0,0-17.33-9.26-37.18-50.15,0,0-5.16,18.84,25.99,56.97,0,0-59.68,16.32-49.97-100.18Z" fill="#61b748"/><path d="M367.13,.61s55.2,78.89,6.14,111.44c0,0-10.35-16.7-7.04-62.03,0,0-13.9,13.72-6.06,62.33,0,0-59.82-15.79,6.96-111.73h0Z" fill="#61b748"/><path d="M480.13,73.61s55.2,78.89,6.14,111.44c0,0-10.35-16.7-7.04-62.03,0,0-13.9,13.72-6.06,62.33,0,0-59.82-15.79,6.96-111.73h0Z" fill="#61b748"/><circle cx="424.74" cy="663.45" r="55" fill="#855435"/></svg>