<svg width="16" height="16" viewBox="0 0 16 16" fill="none" xmlns="http://www.w3.org/2000/svg">
<path d="M10 10H12V12H10V10ZM3 0H13C13.0733 2.74801e-05 13.1457 0.0161652 13.212 0.0472705C13.2784 0.0783759 13.3371 0.123688 13.384 0.18L15.884 3.18C16.001 3.32 16 3.391 16 3.482V5C16 5.888 15.614 6.687 15 7.236V15.5C15 15.6326 14.9473 15.7598 14.8536 15.8536C14.7598 15.9473 14.6326 16 14.5 16H8V9.5C8 9.36739 7.94732 9.24021 7.85355 9.14645C7.75979 9.05268 7.63261 9 7.5 9H3.5C3.36739 9 3.24021 9.05268 3.14645 9.14645C3.05268 9.24021 3 9.36739 3 9.5V16H1.5C1.36739 16 1.24021 15.9473 1.14645 15.8536C1.05268 15.7598 1 15.6326 1 15.5V7.236C0.386 6.686 0 5.888 0 5V3.5C5.26234e-05 3.38305 0.0410991 3.26982 0.116 3.18L2.616 0.18C2.6629 0.123688 2.72161 0.0783759 2.78797 0.0472705C2.85433 0.0161652 2.92671 2.74801e-05 3 0ZM1 4V5C1 5.53043 1.21071 6.03914 1.58579 6.41421C1.96086 6.78929 2.46957 7 3 7C3.53043 7 4.03914 6.78929 4.41421 6.41421C4.78929 6.03914 5 5.53043 5 5V4H1ZM6 4V5C6 5.53043 6.21071 6.03914 6.58579 6.41421C6.96086 6.78929 7.46957 7 8 7C8.53043 7 9.03914 6.78929 9.41421 6.41421C9.78929 6.03914 10 5.53043 10 5V4H6ZM11 4V5C11 5.53043 11.2107 6.03914 11.5858 6.41421C11.9609 6.78929 12.4696 7 13 7C13.5304 7 14.0391 6.78929 14.4142 6.41421C14.7893 6.03914 15 5.53043 15 5V4H11ZM3.234 1L1.568 3H5.14L5.806 1H3.234ZM9.806 3L9.14 1H6.86L6.194 3H9.806ZM10.86 3H14.433L12.766 1H10.194L10.86 3ZM9 9.5V12.5C9 12.6326 9.05268 12.7598 9.14645 12.8536C9.24021 12.9473 9.36739 13 9.5 13H12.5C12.6326 13 12.7598 12.9473 12.8536 12.8536C12.9473 12.7598 13 12.6326 13 12.5V9.5C13 9.36739 12.9473 9.24021 12.8536 9.14645C12.7598 9.05268 12.6326 9 12.5 9H9.5C9.36739 9 9.24021 9.05268 9.14645 9.14645C9.05268 9.24021 9 9.36739 9 9.5ZM7 16V10H4V16H7Z" fill="white"/>
</svg>
