<svg width="18" height="18" viewBox="0 0 18 18" fill="none" xmlns="http://www.w3.org/2000/svg">
<path d="M17.0093 1.1408C16.8762 1.10915 16.7362 1.12623 16.6145 1.18897L15.75 1.62069L14.8782 1.18475C14.8001 1.1457 14.7139 1.12537 14.6266 1.12537C14.5393 1.12537 14.4532 1.1457 14.3751 1.18475L13.4923 1.62104L12.6211 1.18475C12.5428 1.14542 12.4564 1.12493 12.3687 1.12493C12.2811 1.12493 12.1946 1.14542 12.1163 1.18475L11.25 1.61963L10.3905 1.1858C10.3124 1.1462 10.2261 1.12539 10.1385 1.12502C10.0509 1.12465 9.96443 1.14474 9.88598 1.18369L9.00005 1.62139L8.12817 1.1844C8.04994 1.14537 7.96371 1.12505 7.87628 1.12505C7.78885 1.12505 7.70262 1.14537 7.62438 1.1844L6.75005 1.62069L5.87676 1.1844C5.76418 1.12796 5.63592 1.11094 5.51252 1.13606C5.38912 1.16117 5.27771 1.22697 5.19614 1.32291C5.10822 1.4277 5.06082 1.56055 5.06255 1.69733V10.125L5.0643 10.1267H11.8125C12.1109 10.1267 12.3971 10.2453 12.608 10.4562C12.819 10.6672 12.9375 10.9534 12.9375 11.2517V14.9062C12.9375 15.9936 14.1002 16.875 15.1875 16.875H15.6094C16.0943 16.875 16.5593 16.6824 16.9021 16.3395C17.2449 15.9967 17.4375 15.5317 17.4375 15.0469V1.68748C17.4376 1.56158 17.3955 1.43929 17.3179 1.34018C17.2402 1.24107 17.1316 1.17086 17.0093 1.1408ZM14.625 8.43748H10.1426C9.83887 8.43748 9.57661 8.20405 9.56325 7.9003C9.55983 7.82438 9.57183 7.74857 9.59852 7.67742C9.6252 7.60627 9.66603 7.54127 9.71853 7.48634C9.77104 7.4314 9.83413 7.38768 9.90399 7.3578C9.97386 7.32792 10.0491 7.3125 10.125 7.31248H14.6075C14.9112 7.31248 15.1735 7.54592 15.1868 7.84967C15.1903 7.92558 15.1783 8.0014 15.1516 8.07255C15.1249 8.14369 15.0841 8.2087 15.0316 8.26363C14.9791 8.31856 14.916 8.36229 14.8461 8.39217C14.7762 8.42205 14.701 8.43747 14.625 8.43748ZM14.625 5.62498H7.89262C7.58887 5.62498 7.32661 5.39155 7.31325 5.0878C7.30983 5.01188 7.32183 4.93607 7.34852 4.86492C7.3752 4.79377 7.41603 4.72877 7.46853 4.67384C7.52104 4.6189 7.58413 4.57518 7.65399 4.5453C7.72386 4.51542 7.79906 4.5 7.87505 4.49998H14.6075C14.9112 4.49998 15.1735 4.73342 15.1868 5.03717C15.1903 5.11308 15.1783 5.1889 15.1516 5.26005C15.1249 5.33119 15.0841 5.3962 15.0316 5.45113C14.9791 5.50606 14.916 5.54979 14.8461 5.57967C14.7762 5.60955 14.701 5.62497 14.625 5.62498Z" fill="white"/>
<path d="M11.8125 14.9062V11.8125C11.8125 11.6633 11.7532 11.5202 11.6477 11.4148C11.5423 11.3093 11.3992 11.25 11.25 11.25H1.6875C1.38911 11.2509 1.10324 11.37 0.89241 11.5812C0.681583 11.7923 0.562963 12.0784 0.5625 12.3768C0.5625 14.1539 0.765703 14.8929 1.07086 15.4554C1.58871 16.4106 2.52633 16.875 3.9375 16.875H12.5747C12.6024 16.875 12.6296 16.8668 12.6527 16.8515C12.6758 16.8361 12.6938 16.8143 12.7045 16.7887C12.7152 16.7631 12.7181 16.7349 12.7129 16.7076C12.7076 16.6804 12.6944 16.6553 12.6749 16.6356C12.3423 16.302 11.8125 15.8555 11.8125 14.9062Z" fill="white"/>
</svg>
