<svg width="26" height="30" viewBox="0 0 26 30" fill="none" xmlns="http://www.w3.org/2000/svg">
<path d="M25.75 21.3749C25.75 21.9133 25.4525 22.3808 24.9992 22.6216L13.8075 28.9116C13.5808 29.0816 13.2975 29.1666 13 29.1666C12.7025 29.1666 12.4192 29.0816 12.1925 28.9116L1.00084 22.6216C0.773718 22.5022 0.583648 22.3229 0.451276 22.1031C0.318904 21.8834 0.249293 21.6315 0.250005 21.3749V8.62492C0.250005 8.08659 0.547505 7.61909 1.00084 7.37825L12.1925 1.08825C12.4192 0.918252 12.7025 0.833252 13 0.833252C13.2975 0.833252 13.5808 0.918252 13.8075 1.08825L24.9992 7.37825C25.4525 7.61909 25.75 8.08659 25.75 8.62492V21.3749ZM13 3.87909L10.3225 5.39492L18.6667 10.1974L21.4433 8.62492L13 3.87909ZM4.55667 8.62492L13 13.3708L15.7767 11.8124L7.44667 6.99575L4.55667 8.62492ZM3.08334 20.5391L11.5833 25.3274V15.8216L3.08334 11.0474V20.5391ZM22.9167 20.5391V11.0474L14.4167 15.8216V25.3274L22.9167 20.5391Z" fill="#9A783F"/>
</svg>
