<svg width="17" height="17" viewBox="0 0 17 17" fill="none" xmlns="http://www.w3.org/2000/svg">
<path d="M4.6392 14.0182C5.30661 14.0182 5.8534 14.5935 5.8534 15.3042C5.8534 16.0065 5.30661 16.5818 4.6392 16.5818C3.96375 16.5818 3.41696 16.0065 3.41696 15.3042C3.41696 14.5935 3.96375 14.0182 4.6392 14.0182ZM13.6854 14.0182C14.3528 14.0182 14.8996 14.5935 14.8996 15.3042C14.8996 16.0065 14.3528 16.5818 13.6854 16.5818C13.01 16.5818 12.4632 16.0065 12.4632 15.3042C12.4632 14.5935 13.01 14.0182 13.6854 14.0182ZM0.898726 9.90677e-05L0.980672 0.00724485L2.89847 0.310993C3.17186 0.362605 3.37289 0.598665 3.39701 0.886337L3.54979 2.78159C3.57392 3.05319 3.78298 3.25625 4.0403 3.25625H14.8998C15.3903 3.25625 15.7119 3.43393 16.0336 3.82313C16.3552 4.21234 16.4115 4.77076 16.3391 5.27757L15.5752 10.828C15.4305 11.8949 14.562 12.6809 13.5408 12.6809H4.76802C3.69855 12.6809 2.81404 11.8187 2.72558 10.7019L1.98581 1.4786L0.771604 1.25862C0.449961 1.19939 0.224811 0.869415 0.281099 0.530977C0.337386 0.184925 0.650988 -0.0443669 0.980672 0.00724485L0.898726 9.90677e-05ZM12.2543 6.38595H10.0269C9.68915 6.38595 9.4238 6.66516 9.4238 7.02052C9.4238 7.36742 9.68915 7.6551 10.0269 7.6551H12.2543C12.592 7.6551 12.8573 7.36742 12.8573 7.02052C12.8573 6.66516 12.592 6.38595 12.2543 6.38595Z" fill="white"/>
</svg>
