<svg width="21" height="13" viewBox="0 0 21 13" fill="none" xmlns="http://www.w3.org/2000/svg">
<path fill-rule="evenodd" clip-rule="evenodd" d="M1.28655 5H20.397C20.6463 5 20.8125 5.16001 20.8124 5.40001V11C20.8124 12.12 19.8985 13 18.7352 13H2.94831C1.78509 13 0.871094 12.12 0.871094 11V5.40001C0.871094 5.16001 1.03728 5 1.28655 5ZM7.10278 8.20003H3.77923C3.52996 8.20003 3.36377 8.36001 3.36377 8.60001C3.36377 8.84001 3.52996 9.00002 3.77923 9.00006H7.10278C7.35204 9.00006 7.51823 8.84004 7.51823 8.60004C7.51823 8.36004 7.35204 8.20003 7.10278 8.20003ZM9.59545 10.6H3.77923C3.52996 10.6 3.36377 10.44 3.36377 10.2C3.36377 9.96002 3.52996 9.80001 3.77923 9.80001H9.59545C9.84472 9.80001 10.0109 9.96002 10.0109 10.2C10.0109 10.44 9.84472 10.6 9.59545 10.6ZM15.8271 10.36C16.0764 10.52 16.3257 10.6 16.658 10.6C17.572 10.6 18.3198 9.88003 18.3198 9.00002C18.3198 8.12001 17.572 7.40001 16.658 7.40001C16.3257 7.40001 16.0764 7.47999 15.8271 7.64001C15.5779 7.47999 15.3286 7.40001 14.9963 7.40001C14.0823 7.40001 13.3345 8.12001 13.3345 9.00002C13.3345 9.88003 14.0823 10.6 14.9963 10.6C15.3286 10.6 15.5779 10.52 15.8271 10.36Z" fill="white"/>
<path d="M18.7352 0H2.9483C1.78508 0 0.871094 1.10001 0.871094 2.50001V3.49999C0.871094 3.79999 1.03728 4 1.28655 4H20.397C20.6462 4 20.8124 3.79999 20.8124 3.49999V2.50001C20.8124 1.10001 19.8984 0 18.7352 0Z" fill="white"/>
</svg>
