<svg width="38" height="36" viewBox="0 0 38 36" fill="none" xmlns="http://www.w3.org/2000/svg">
<path d="M10.125 15.125V11.625H25.875V15.125H10.125ZM3.99997 0.25C3.22953 0.250034 2.48062 0.504279 1.8694 0.973306C1.25818 1.44233 0.818793 2.09993 0.619386 2.84412C0.419978 3.58831 0.471693 4.3775 0.766509 5.0893C1.06132 5.80111 1.58277 6.39575 2.24997 6.781V30.4375C2.24997 31.162 2.83797 31.75 3.56247 31.75H7.49997V22.5625C7.49997 22.2144 7.63825 21.8806 7.88439 21.6344C8.13053 21.3883 8.46437 21.25 8.81247 21.25H15.8125C16.1606 21.25 16.4944 21.3883 16.7405 21.6344C16.9867 21.8806 17.125 22.2144 17.125 22.5625V23C17.923 21.9377 19.1935 21.25 20.625 21.25H33.75V6.781C34.4172 6.39575 34.9386 5.80111 35.2334 5.0893C35.5282 4.3775 35.58 3.58831 35.3806 2.84412C35.1811 2.09993 34.7418 1.44233 34.1305 0.973306C33.5193 0.504279 32.7704 0.250034 32 0.25H3.99997ZM3.12497 3.75C3.12497 3.51794 3.21716 3.29538 3.38125 3.13128C3.54535 2.96719 3.7679 2.875 3.99997 2.875H32C32.232 2.875 32.4546 2.96719 32.6187 3.13128C32.7828 3.29538 32.875 3.51794 32.875 3.75C32.875 3.98206 32.7828 4.20462 32.6187 4.36872C32.4546 4.53281 32.232 4.625 32 4.625H3.99997C3.7679 4.625 3.54535 4.53281 3.38125 4.36872C3.21716 4.20462 3.12497 3.98206 3.12497 3.75ZM8.81247 9H27.1875C27.5356 9 27.8694 9.13828 28.1155 9.38442C28.3617 9.63056 28.5 9.9644 28.5 10.3125V16.4375C28.5 16.7856 28.3617 17.1194 28.1155 17.3656C27.8694 17.6117 27.5356 17.75 27.1875 17.75H8.81247C8.46437 17.75 8.13053 17.6117 7.88439 17.3656C7.63825 17.1194 7.49997 16.7856 7.49997 16.4375V10.3125C7.49997 9.9644 7.63825 9.63056 7.88439 9.38442C8.13053 9.13828 8.46437 9 8.81247 9ZM14.5 23.875V31.75H10.125V23.875H14.5ZM18 25.625C18 24.9288 18.2765 24.2611 18.7688 23.7688C19.2611 23.2766 19.9288 23 20.625 23H34.625C35.3212 23 35.9888 23.2766 36.4811 23.7688C36.9734 24.2611 37.25 24.9288 37.25 25.625V32.625C37.25 33.3212 36.9734 33.9889 36.4811 34.4812C35.9888 34.9734 35.3212 35.25 34.625 35.25H20.625C19.9288 35.25 19.2611 34.9734 18.7688 34.4812C18.2765 33.9889 18 33.3212 18 32.625V25.625ZM35.5 26.5C35.0358 26.5 34.5907 26.3156 34.2625 25.9874C33.9343 25.6593 33.75 25.2141 33.75 24.75H32C32 25.6783 32.3687 26.5685 33.0251 27.2249C33.6815 27.8813 34.5717 28.25 35.5 28.25V26.5ZM35.5 30C34.5717 30 33.6815 30.3687 33.0251 31.0251C32.3687 31.6815 32 32.5717 32 33.5H33.75C33.75 33.0359 33.9343 32.5908 34.2625 32.2626C34.5907 31.9344 35.0358 31.75 35.5 31.75V30ZM21.5 24.75C21.5 25.2141 21.3156 25.6593 20.9874 25.9874C20.6592 26.3156 20.2141 26.5 19.75 26.5V28.25C20.6782 28.25 21.5685 27.8813 22.2248 27.2249C22.8812 26.5685 23.25 25.6783 23.25 24.75H21.5ZM23.25 33.5C23.25 32.5717 22.8812 31.6815 22.2248 31.0251C21.5685 30.3687 20.6782 30 19.75 30V31.75C20.2141 31.75 20.6592 31.9344 20.9874 32.2626C21.3156 32.5908 21.5 33.0359 21.5 33.5H23.25ZM30.6875 29.125C30.6875 28.3128 30.3648 27.5338 29.7905 26.9595C29.2162 26.3852 28.4372 26.0625 27.625 26.0625C26.8127 26.0625 26.0338 26.3852 25.4595 26.9595C24.8851 27.5338 24.5625 28.3128 24.5625 29.125C24.5625 29.9372 24.8851 30.7162 25.4595 31.2905C26.0338 31.8648 26.8127 32.1875 27.625 32.1875C28.4372 32.1875 29.2162 31.8648 29.7905 31.2905C30.3648 30.7162 30.6875 29.9372 30.6875 29.125Z" fill="#9A783F"/>
</svg>
