<svg width="19" height="17" viewBox="0 0 19 17" fill="none" xmlns="http://www.w3.org/2000/svg">
<path d="M3.76246 13H2.93874C1.79701 13 0.868164 13.8973 0.868164 15V16.4562C0.868164 16.7566 1.12021 17 1.43119 17H3.85938C3.79677 16.8298 3.76246 16.6468 3.76246 16.4562V13Z" fill="white"/>
<path d="M7.75074 11H6.92717C5.78543 11 4.85645 11.7788 4.85645 12.736V16.528C4.85645 16.7887 5.10849 17 5.41947 17H7.84766C7.7852 16.8522 7.75074 16.6934 7.75074 16.528V11Z" fill="white"/>
<path d="M18.7192 5.00278L15.2208 0.201553C15.1283 0.0748367 14.9823 0 14.8271 0C14.6718 0 14.5257 0.0748367 14.4334 0.201553L10.9351 5.00278C10.825 5.15388 10.808 5.3553 10.8912 5.52326C10.9745 5.69122 11.1437 5.79732 11.3288 5.79732H12.588V16.502C12.588 16.777 12.8073 17 13.0779 17H16.5762C16.8468 17 17.0661 16.777 17.0661 16.502V5.79732H18.3255C18.5105 5.79732 18.6798 5.69122 18.763 5.52326C18.8463 5.3553 18.8293 5.15388 18.7192 5.00278Z" fill="white"/>
<path d="M11.7392 8H10.9155C9.77372 8 8.84473 8.82183 8.84473 9.83202V16.5018C8.84473 16.777 9.09691 17 9.40775 17H11.8359C11.7735 16.8441 11.7392 16.6765 11.7392 16.5018V8Z" fill="white"/>
</svg>
