<svg width="34" height="34" viewBox="0 0 34 34" fill="none" xmlns="http://www.w3.org/2000/svg">
<path d="M4.25 0C3.12283 0 2.04183 0.447767 1.2448 1.2448C0.447767 2.04183 0 3.12283 0 4.25L0 29.75C0 30.8772 0.447767 31.9582 1.2448 32.7552C2.04183 33.5522 3.12283 34 4.25 34H29.75C30.8772 34 31.9582 33.5522 32.7552 32.7552C33.5522 31.9582 34 30.8772 34 29.75V4.25C34 3.12283 33.5522 2.04183 32.7552 1.2448C31.9582 0.447767 30.8772 0 29.75 0L4.25 0ZM11.679 12.8201C11.6105 12.8211 11.5425 12.808 11.4793 12.7818C11.416 12.7555 11.3587 12.7166 11.311 12.6675C11.2632 12.6184 11.226 12.56 11.2016 12.496C11.1772 12.432 11.1661 12.3637 11.169 12.2952C11.3687 8.69337 14.3161 7.4375 17.0106 7.4375C19.9771 7.4375 22.6886 8.98875 22.6886 12.1975C22.6886 14.4925 21.3392 15.5848 20.0451 16.5686C18.479 17.7565 17.8989 18.2006 17.8989 19.7264V19.9495C17.8989 20.0904 17.8429 20.2255 17.7433 20.3251C17.6436 20.4248 17.5085 20.4807 17.3676 20.4807H15.6464C15.5069 20.4808 15.3731 20.426 15.2737 20.3282C15.1743 20.2304 15.1174 20.0974 15.1151 19.958L15.1066 19.4969C15.0259 17.527 16.1585 16.3136 17.5886 15.2745C18.8424 14.331 19.6392 13.7105 19.6392 12.3611C19.6392 10.608 18.3048 9.87913 16.847 9.87913C15.1406 9.87913 14.1844 10.8949 13.9952 12.2889C13.957 12.58 13.7233 12.8201 13.43 12.8201H11.679ZM16.6196 26.5115C15.3786 26.5115 14.4755 25.6742 14.4755 24.5416C14.4755 23.3686 15.3786 22.5441 16.6217 22.5441C17.9159 22.5441 18.8063 23.3686 18.8063 24.5416C18.8063 25.6742 17.9137 26.5115 16.6196 26.5115Z" fill="#9A783F"/>
</svg>
