<?xml version="1.0" encoding="UTF-8"?><svg id="Layer_1" xmlns="http://www.w3.org/2000/svg" viewBox="0 0 862.52 264.44"><g><polygon points="187.27 0 39.01 0 0 62.42 0 226.29 226.29 226.29 226.29 62.42 187.27 0" fill="#a98258"/><path d="M136.55,105.34h-46.82c-4.29,0-7.8-3.51-7.8-7.8h0c0-4.29,3.51-7.8,7.8-7.8h46.82c4.29,0,7.8,3.51,7.8,7.8h0c0,4.29-3.51,7.8-7.8,7.8Z" fill="#5c4732"/><g><path d="M144.35,198.98h-62.42c-2.15,0-3.9,1.74-3.9,3.9s1.75,3.9,3.9,3.9h62.42c2.15,0,3.9-1.74,3.9-3.9s-1.75-3.9-3.9-3.9Z" fill="#e8d5b3"/><path d="M81.93,167.76c1,0,2-.38,2.76-1.14l5.04-5.04v25.7c0,2.16,1.75,3.9,3.9,3.9s3.9-1.74,3.9-3.9v-25.7l5.04,5.04c.76,.76,1.76,1.14,2.76,1.14s2-.38,2.76-1.14c1.53-1.53,1.53-3.99,0-5.52l-11.7-11.7c-.36-.36-.79-.65-1.27-.85-.95-.39-2.03-.39-2.98,0-.48,.2-.91,.48-1.27,.85l-11.7,11.7c-1.53,1.53-1.53,3.99,0,5.52,.76,.76,1.76,1.14,2.76,1.14Z" fill="#e8d5b3"/><path d="M120.95,167.76c1,0,2-.38,2.76-1.14l5.04-5.04v25.7c0,2.16,1.75,3.9,3.9,3.9s3.9-1.74,3.9-3.9v-25.7l5.04,5.04c.76,.76,1.76,1.14,2.76,1.14s2-.38,2.76-1.14c1.53-1.53,1.53-3.99,0-5.52l-11.7-11.7c-.36-.36-.79-.65-1.27-.85-.95-.39-2.03-.39-2.98,0-.48,.2-.91,.48-1.27,.85l-11.7,11.7c-1.53,1.53-1.53,3.99,0,5.52,.76,.76,1.76,1.14,2.76,1.14Z" fill="#e8d5b3"/></g><polygon points="39.01 0 0 62.42 226.29 62.42 187.27 0 39.01 0" fill="#daaf86"/><rect x="109.24" width="7.8" height="62.42" fill="#f4d6be"/></g><text transform="translate(263.8 168.79)" fill="#a98258" font-family="Poppins-Bold, Poppins" font-size="157.85" font-weight="700"><tspan x="0" y="0">PARCEL</tspan></text></svg>