<svg width="36" height="36" viewBox="0 0 36 36" fill="none" xmlns="http://www.w3.org/2000/svg">
<path fill-rule="evenodd" clip-rule="evenodd" d="M15.6 1.3C16.2924 0.780712 17.1345 0.5 18 0.5C18.8655 0.5 19.7076 0.780712 20.4 1.3L34.4 11.8C34.8968 12.1726 35.3 12.6557 35.5777 13.2111C35.8554 13.7666 36 14.379 36 15V32C36 33.0609 35.5786 34.0783 34.8284 34.8284C34.0783 35.5786 33.0609 36 32 36H4C2.93913 36 1.92172 35.5786 1.17157 34.8284C0.421427 34.0783 0 33.0609 0 32V15C0 14.379 0.14458 13.7666 0.422291 13.2111C0.700002 12.6557 1.10322 12.1726 1.6 11.8L15.6 1.3ZM20 14C20 13.4696 19.7893 12.9609 19.4142 12.5858C19.0391 12.2107 18.5304 12 18 12C17.4696 12 16.9609 12.2107 16.5858 12.5858C16.2107 12.9609 16 13.4696 16 14V26C16 26.5304 16.2107 27.0391 16.5858 27.4142C16.9609 27.7893 17.4696 28 18 28C18.5304 28 19.0391 27.7893 19.4142 27.4142C19.7893 27.0391 20 26.5304 20 26V14ZM12 20C12 19.4696 11.7893 18.9609 11.4142 18.5858C11.0391 18.2107 10.5304 18 10 18C9.46957 18 8.96086 18.2107 8.58579 18.5858C8.21071 18.9609 8 19.4696 8 20V26C8 26.5304 8.21071 27.0391 8.58579 27.4142C8.96086 27.7893 9.46957 28 10 28C10.5304 28 11.0391 27.7893 11.4142 27.4142C11.7893 27.0391 12 26.5304 12 26V20ZM28 24C28 23.4696 27.7893 22.9609 27.4142 22.5858C27.0391 22.2107 26.5304 22 26 22C25.4696 22 24.9609 22.2107 24.5858 22.5858C24.2107 22.9609 24 23.4696 24 24V26C24 26.5304 24.2107 27.0391 24.5858 27.4142C24.9609 27.7893 25.4696 28 26 28C26.5304 28 27.0391 27.7893 27.4142 27.4142C27.7893 27.0391 28 26.5304 28 26V24Z" fill="#9A783F"/>
</svg>
