<svg width="28" height="28" viewBox="0 0 28 28" fill="none" xmlns="http://www.w3.org/2000/svg">
<path d="M15.3333 3.33341V0.666748C21.5467 1.33341 26.44 6.25342 27.1333 12.4667C27.9333 19.7867 22.6667 26.3734 15.3333 27.1734V24.5067C20.1867 23.9067 24 20.0801 24.6133 15.2267C24.7861 13.8363 24.6829 12.4255 24.3099 11.0749C23.9368 9.72439 23.3012 8.46065 22.4393 7.356C21.5773 6.25136 20.5061 5.3275 19.2868 4.63726C18.0675 3.94702 16.724 3.50396 15.3333 3.33341ZM5.56 3.60008C7.581 1.93153 10.0572 0.909478 12.6667 0.666748V3.41341C10.76 3.68008 8.96 4.45341 7.46667 5.65341L5.56 3.60008ZM0.733337 12.6667C0.980937 10.056 2.00758 7.58002 3.68 5.56008L5.58667 7.46675C4.40532 8.97301 3.65013 10.7689 3.4 12.6667H0.733337ZM3.69334 22.4401C2.03691 20.4105 1.01237 17.9396 0.746671 15.3334H3.41334C3.65334 17.2267 4.41334 19.0267 5.58667 20.5334L3.69334 22.4401ZM5.56 24.3201L7.41334 22.4934H7.46667C8.97334 23.6667 10.7733 24.4267 12.6667 24.6667V27.3334C10.0533 27.0534 7.57334 26.0001 5.56 24.3201ZM14 20.6667L16.08 16.1067L20.6667 14.0001L16.08 11.9201L14 7.33341L11.9067 11.9201L7.33334 14.0001L11.9067 16.1067L14 20.6667Z" fill="#9A783F"/>
</svg>
