<svg width="36" height="40" viewBox="0 0 36 40" fill="none" xmlns="http://www.w3.org/2000/svg">
<path d="M27.5833 0.833252C29.05 0.83317 30.4612 1.39354 31.5283 2.39971C32.5954 3.40588 33.2377 4.78179 33.3237 6.24592L33.3333 6.58325V29.5833C33.7638 29.5824 34.1821 29.7264 34.5207 29.9923C34.8593 30.2581 35.0986 30.6301 35.2 31.0485C35.3014 31.4669 35.259 31.9072 35.0796 32.2986C34.9002 32.6899 34.5943 33.0095 34.2112 33.2057L34.0061 33.2939L18.6727 39.0439C18.3275 39.1736 17.9521 39.2009 17.5917 39.1225L17.3272 39.0458L1.9939 33.2958C1.59117 33.1458 1.25053 32.8648 1.0267 32.498C0.80287 32.1311 0.70883 31.6996 0.759685 31.2729C0.810541 30.8462 1.00334 30.4489 1.30712 30.1449C1.6109 29.8409 2.00803 29.6478 2.43474 29.5967L2.66665 29.5833V6.58325C2.66657 5.1166 3.22694 3.70535 4.23311 2.63825C5.23928 1.57116 6.61519 0.928879 8.07932 0.842836L8.41665 0.833252H27.5833ZM18 6.58325C17.5305 6.58331 17.0774 6.75567 16.7266 7.06762C16.3758 7.37958 16.1517 7.80944 16.0967 8.27567L16.0833 8.49992V10.4166H14.1667C12.921 10.4136 11.7232 10.8957 10.827 11.7608C9.93085 12.6259 9.40679 13.806 9.36591 15.051C9.32504 16.2959 9.77056 17.5079 10.6081 18.4299C11.4456 19.352 12.6092 19.9117 13.8523 19.9903L14.1667 19.9999H16.0833V21.9166H12.25C11.7615 21.9171 11.2916 22.1042 10.9364 22.4395C10.5811 22.7749 10.3674 23.2332 10.3387 23.7209C10.3101 24.2086 10.4688 24.6888 10.7823 25.0634C11.0959 25.438 11.5406 25.6788 12.0257 25.7365L12.25 25.7499H16.0833V27.6666C16.0839 28.1551 16.2709 28.625 16.6063 28.9802C16.9416 29.3354 17.4 29.5492 17.8877 29.5778C18.3753 29.6065 18.8555 29.4478 19.2302 29.1342C19.6048 28.8207 19.8455 28.3759 19.9032 27.8908L19.9167 27.6666V25.7499H21.8333C23.0789 25.7529 24.2768 25.2708 25.173 24.4057C26.0691 23.5406 26.5932 22.3605 26.6341 21.1155C26.6749 19.8706 26.2294 18.6586 25.3919 17.7366C24.5544 16.8145 23.3908 16.2549 22.1477 16.1762L21.8333 16.1666H19.9167V14.2499H23.75C24.2385 14.2494 24.7084 14.0623 25.0636 13.727C25.4188 13.3916 25.6326 12.9333 25.6612 12.4456C25.6899 11.9579 25.5312 11.4777 25.2176 11.1031C24.9041 10.7285 24.4593 10.4877 23.9742 10.43L23.75 10.4166H19.9167V8.49992C19.9167 7.99159 19.7147 7.50408 19.3553 7.14463C18.9958 6.78519 18.5083 6.58325 18 6.58325ZM21.8333 19.9999C22.0875 19.9999 22.3312 20.1009 22.511 20.2806C22.6907 20.4603 22.7917 20.7041 22.7917 20.9583C22.7917 21.2124 22.6907 21.4562 22.511 21.6359C22.3312 21.8156 22.0875 21.9166 21.8333 21.9166H19.9167V19.9999H21.8333ZM16.0833 14.2499V16.1666H14.1667C13.9125 16.1666 13.6687 16.0656 13.489 15.8859C13.3093 15.7062 13.2083 15.4624 13.2083 15.2083C13.2083 14.9541 13.3093 14.7103 13.489 14.5306C13.6687 14.3509 13.9125 14.2499 14.1667 14.2499H16.0833Z" fill="#9A783F"/>
</svg>
