<svg width="36" height="36" viewBox="0 0 36 36" fill="none" xmlns="http://www.w3.org/2000/svg">
<path d="M14.9 19.95L17.5 22.55C17.8667 22.9167 18.3333 23.1 18.9 23.1C19.4667 23.1 19.9333 22.9167 20.3 22.55L26 16.85V18.05C26 18.6167 26.192 19.0833 26.576 19.45C26.96 19.8167 27.4347 20 28 20C28.5667 20 29.042 19.8087 29.426 19.426C29.81 19.0433 30.0013 18.568 30 18V12C30 11.4333 29.808 10.958 29.424 10.574C29.04 10.19 28.5653 9.99867 28 10H21.95C21.3833 10 20.9167 10.192 20.55 10.576C20.1833 10.96 20 11.4347 20 12C20 12.5667 20.192 13.042 20.576 13.426C20.96 13.81 21.4347 14.0013 22 14H23.15L18.9 18.3L16.3 15.7C15.9333 15.3 15.4667 15.1 14.9 15.1C14.3333 15.1 13.8667 15.3 13.5 15.7L7.4 21.8C7 22.1667 6.8 22.6333 6.8 23.2C6.8 23.7667 7 24.2333 7.4 24.6C7.76667 25 8.23334 25.2 8.8 25.2C9.36667 25.2 9.83334 25 10.2 24.6L14.9 19.95ZM4 36C2.9 36 1.958 35.608 1.174 34.824C0.390003 34.04 -0.00132994 33.0987 3.39559e-06 32V4C3.39559e-06 2.9 0.392003 1.958 1.176 1.174C1.96 0.390003 2.90134 -0.00132994 4 3.39559e-06H32C33.1 3.39559e-06 34.042 0.392003 34.826 1.176C35.61 1.96 36.0013 2.90134 36 4V32C36 33.1 35.608 34.042 34.824 34.826C34.04 35.61 33.0987 36.0013 32 36H4Z" fill="#9A783F"/>
</svg>
