<svg width="41" height="41" viewBox="0 0 41 41" fill="none" xmlns="http://www.w3.org/2000/svg">
<path d="M35.25 8.41667H0.75V0.75H35.25V8.41667ZM18 31.4167C18 32.7583 18.2108 34.0425 18.575 35.25H2.66667V10.3333H33.3333V18.1533C32.7008 18.0575 32.0683 18 31.4167 18C23.9992 18 18 23.9992 18 31.4167ZM23.75 19.9167V17.0417C23.75 16.505 23.3283 16.0833 22.7917 16.0833H13.2083C12.6717 16.0833 12.25 16.505 12.25 17.0417V19.9167H23.75ZM40.6167 34.1C40.8083 34.1 40.8083 34.2917 40.6167 34.4833L38.7 37.7417C38.5083 37.9333 38.3167 37.9333 38.125 37.9333L35.825 37.1667C35.25 37.55 34.8667 37.7417 34.2917 38.125L33.9083 40.6167C33.9083 40.8083 33.7167 41 33.525 41H29.6917C29.5 41 29.3083 40.8083 29.1167 40.6167L28.7333 38.125C28.1583 37.9333 27.5833 37.55 27.2 37.1667L24.9 38.125C24.7083 38.125 24.5167 38.125 24.325 37.9333L22.4083 34.675C22.2167 34.4833 22.4083 34.2917 22.6 34.1L24.7083 32.5667V30.65L22.6 29.1167C22.4083 28.925 22.4083 28.7333 22.4083 28.5417L24.325 25.2833C24.5167 25.0917 24.7083 25.0917 24.9 25.0917L27.2 26.05C27.775 25.6667 28.1583 25.475 28.7333 25.0917L29.1167 22.6C29.1167 22.4083 29.3083 22.2167 29.6917 22.2167H33.525C33.7167 22.2167 33.9083 22.4083 33.9083 22.6L34.2917 25.0917C34.8667 25.2833 35.4417 25.6667 36.0167 26.05L38.3167 25.0917C38.5083 25.0917 38.8917 25.0917 38.8917 25.2833L40.8083 28.5417C41 28.7333 40.8083 28.925 40.6167 29.1167L38.5083 30.65V32.5667L40.6167 34.1ZM34.2917 31.4167C34.2917 29.8833 32.95 28.5417 31.4167 28.5417C29.8833 28.5417 28.5417 29.8833 28.5417 31.4167C28.5417 32.95 29.8833 34.2917 31.4167 34.2917C32.95 34.2917 34.2917 32.95 34.2917 31.4167Z" fill="#9A783F"/>
</svg>
