<svg width="34" height="25" viewBox="0 0 34 25" fill="none" xmlns="http://www.w3.org/2000/svg">
<path d="M0.125 5.56258H14.75L15.875 7.87508H1.25L0.125 5.56258ZM1.625 10.1876H16.25L17.375 12.5001H2.75L1.625 10.1876ZM26 22.5209C27.245 22.5209 28.25 21.488 28.25 20.2084C28.25 18.9288 27.245 17.8959 26 17.8959C24.755 17.8959 23.75 18.9288 23.75 20.2084C23.75 21.488 24.755 22.5209 26 22.5209ZM28.25 8.64591H24.5V12.5001H31.19L28.25 8.64591ZM11 22.5209C12.245 22.5209 13.25 21.488 13.25 20.2084C13.25 18.9288 12.245 17.8959 11 17.8959C9.755 17.8959 8.75 18.9288 8.75 20.2084C8.75 21.488 9.755 22.5209 11 22.5209ZM29 6.33341L33.5 12.5001V20.2084H30.5C30.5 22.7676 28.49 24.8334 26 24.8334C23.51 24.8334 21.5 22.7676 21.5 20.2084H15.5C15.5 22.7676 13.475 24.8334 11 24.8334C8.51 24.8334 6.5 22.7676 6.5 20.2084H3.5V14.8126H6.5V17.1251H7.64C8.465 16.1847 9.665 15.5834 11 15.5834C12.335 15.5834 13.535 16.1847 14.36 17.1251H21.5V3.25008H3.5C3.5 1.53883 4.835 0.166748 6.5 0.166748H24.5V6.33341H29Z" fill="#9A783F"/>
</svg>
