<svg width="19" height="19" viewBox="0 0 19 19" fill="none" xmlns="http://www.w3.org/2000/svg">
<path d="M2.85 8.5501C3.89797 8.5501 4.75 7.69807 4.75 6.6501C4.75 5.60213 3.89797 4.7501 2.85 4.7501C1.80203 4.7501 0.95 5.60213 0.95 6.6501C0.95 7.69807 1.80203 8.5501 2.85 8.5501ZM16.15 8.5501C17.198 8.5501 18.05 7.69807 18.05 6.6501C18.05 5.60213 17.198 4.7501 16.15 4.7501C15.102 4.7501 14.25 5.60213 14.25 6.6501C14.25 7.69807 15.102 8.5501 16.15 8.5501ZM17.1 9.5001H15.2C14.6775 9.5001 14.2055 9.71088 13.8611 10.0523C15.0575 10.7084 15.9066 11.8929 16.0906 13.3001H18.05C18.5755 13.3001 19 12.8756 19 12.3501V11.4001C19 10.3521 18.148 9.5001 17.1 9.5001ZM9.5 9.5001C11.3377 9.5001 12.825 8.01275 12.825 6.1751C12.825 4.33744 11.3377 2.8501 9.5 2.8501C7.66234 2.8501 6.175 4.33744 6.175 6.1751C6.175 8.01275 7.66234 9.5001 9.5 9.5001ZM11.78 10.4501H11.5336C10.9161 10.747 10.2303 10.9251 9.5 10.9251C8.76969 10.9251 8.08687 10.747 7.46641 10.4501H7.22C5.33187 10.4501 3.8 11.982 3.8 13.8701V14.7251C3.8 15.5118 4.43828 16.1501 5.225 16.1501H13.775C14.5617 16.1501 15.2 15.5118 15.2 14.7251V13.8701C15.2 11.982 13.6681 10.4501 11.78 10.4501ZM5.13891 10.0523C4.79453 9.71088 4.3225 9.5001 3.8 9.5001H1.9C0.852031 9.5001 0 10.3521 0 11.4001V12.3501C0 12.8756 0.424531 13.3001 0.95 13.3001H2.90641C3.09344 11.8929 3.9425 10.7084 5.13891 10.0523Z" fill="white"/>
</svg>
