<svg width="26" height="24" viewBox="0 0 26 24" fill="none" xmlns="http://www.w3.org/2000/svg">
<path d="M18.6667 0.666748C19.0277 0.667149 19.375 0.80541 19.6376 1.05328C19.9002 1.30116 20.0582 1.63993 20.0793 2.00039C20.1005 2.36085 19.9832 2.71579 19.7515 2.99268C19.5197 3.26957 19.191 3.44752 18.8324 3.49016L18.6667 3.50008H3.79167C3.61466 3.49976 3.44395 3.56571 3.31314 3.68497C3.18234 3.80422 3.10092 3.96813 3.08493 4.14441C3.06893 4.32069 3.11952 4.49658 3.22673 4.63743C3.33393 4.77827 3.48999 4.87388 3.66417 4.90541L3.79167 4.91675H22.9167C23.6315 4.91652 24.32 5.18649 24.8441 5.67253C25.3682 6.15858 25.6893 6.82478 25.7429 7.53758L25.75 7.75008V20.5001C25.7502 21.2149 25.4803 21.9034 24.9942 22.4275C24.5082 22.9517 23.842 23.2727 23.1292 23.3263L22.9167 23.3334H3.08333C2.36852 23.3336 1.68003 23.0637 1.15589 22.5776C0.63175 22.0916 0.310695 21.4254 0.257084 20.7126L0.25 20.5001V4.20841C0.249862 3.30923 0.591746 2.44366 1.20631 1.78727C1.82087 1.13088 2.66209 0.732818 3.55933 0.673832L3.79167 0.666748H18.6667ZM3.08333 7.67925V20.5001H22.9167V7.75008H3.79167C3.63017 7.75008 3.47008 7.73875 3.31425 7.71891L3.08333 7.67925ZM17.9583 12.0001C18.5219 12.0001 19.0624 12.224 19.4609 12.6225C19.8594 13.021 20.0833 13.5615 20.0833 14.1251C20.0833 14.6887 19.8594 15.2292 19.4609 15.6277C19.0624 16.0262 18.5219 16.2501 17.9583 16.2501C17.3947 16.2501 16.8542 16.0262 16.4557 15.6277C16.0572 15.2292 15.8333 14.6887 15.8333 14.1251C15.8333 13.5615 16.0572 13.021 16.4557 12.6225C16.8542 12.224 17.3947 12.0001 17.9583 12.0001Z" fill="#9A783F"/>
</svg>
